<?xml version="1.0" encoding="UTF-8"?>
<svg width="32px" height="32px" viewBox="0 0 32 32" version="1.1" xmlns="http://www.w3.org/2000/svg" xmlns:xlink="http://www.w3.org/1999/xlink">
    <!-- Generator: Sketch 53 (72520) - https://sketchapp.com -->
    <title>icon</title>
    <desc>Created with Sketch.</desc>
    <g id="icon" stroke="none" stroke-width="1" fill="none" fill-rule="evenodd">
        <rect fill="#FFFFFF" x="0" y="0" width="32" height="32"></rect>
        <g id="ios-box-outline" transform="translate(0.000000, 2.000000)" fill="#B92701" fill-rule="nonzero">
            <path d="M19.18,12.8 C20.06,12.8 20.79,13.52 20.79,14.4 C20.79,15.28 20.09,16 19.2,16 L12.8,16 C11.92,16 11.2,15.28 11.2,14.4 C11.2,13.52 11.92,12.8 12.8,12.8 L19.1,12.8 L19.18,12.8 Z M19.2,11.2 L12.8,11.2 C11.04,11.2 9.6,12.64 9.6,14.4 C9.6,16.16 11.04,17.6 12.8,17.6 L19.2,17.6 C20.96,17.6 22.4,16.16 22.4,14.4 C22.4,12.64 20.96,11.2 19.2,11.2 L19.2,11.2 Z" id="Shape"></path>
            <path d="M32,0 L0,0 L0,8 L1.6,8 L1.6,28.8 L30.4,28.8 L30.4,8 L32,8 L32,0 Z M28.8,27.2 L3.2,27.2 L3.2,8 L28.8,8 L28.8,27.2 Z M30.4,6.4 L1.6,6.4 L1.6,1.6 L30.4,1.6 L30.4,6.4 Z" id="Shape"></path>
        </g>
        <g id="arrow-left-c" transform="translate(8.086653, 23.065280) rotate(-91.000000) translate(-8.086653, -23.065280) translate(3.086653, 19.065280)" fill="#B92701" fill-rule="nonzero">
            <path d="M3.10511364,0.267045455 L0.255681818,3.25 C0.0852272727,3.41477273 0,3.63920455 0,3.88636364 C0,4.13352273 0.0852272727,4.35511364 0.255681818,4.52272727 L3.10511364,7.51704545 C3.44318182,7.87215909 3.99431818,7.87215909 4.33238636,7.51704545 C4.67045455,7.16193182 4.67045455,6.58806818 4.33238636,6.23295455 L2.96590909,4.80113636 L9.13068182,4.80113636 C9.61079545,4.80113636 10,4.39488636 10,3.89204545 C10,3.38920455 9.61079545,2.98295455 9.13068182,2.98295455 L2.96590909,2.98295455 L4.33522727,1.55113636 C4.67329545,1.19602273 4.67329545,0.622159091 4.33522727,0.267045455 C3.99431818,-0.0880681818 3.44602273,-0.0880681818 3.10511364,0.267045455 Z" id="Path"></path>
        </g>
        <g id="arrow-left-c" transform="translate(23.978715, 23.067164) rotate(-270.000000) translate(-23.978715, -23.067164) translate(18.978715, 19.175119)" fill="#B92701" fill-rule="nonzero">
            <path d="M3.10511364,0.267045455 L0.255681818,3.25 C0.0852272727,3.41477273 0,3.63920455 0,3.88636364 C0,4.13352273 0.0852272727,4.35511364 0.255681818,4.52272727 L3.10511364,7.51704545 C3.44318182,7.87215909 3.99431818,7.87215909 4.33238636,7.51704545 C4.67045455,7.16193182 4.67045455,6.58806818 4.33238636,6.23295455 L2.96590909,4.80113636 L9.13068182,4.80113636 C9.61079545,4.80113636 10,4.39488636 10,3.89204545 C10,3.38920455 9.61079545,2.98295455 9.13068182,2.98295455 L2.96590909,2.98295455 L4.33522727,1.55113636 C4.67329545,1.19602273 4.67329545,0.622159091 4.33522727,0.267045455 C3.99431818,-0.0880681818 3.44602273,-0.0880681818 3.10511364,0.267045455 Z" id="Path"></path>
        </g>
    </g>
</svg>