<?xml version="1.0" encoding="UTF-8"?>
<svg width="128px" height="128px" viewBox="0 0 128 128" version="1.1" xmlns="http://www.w3.org/2000/svg" xmlns:xlink="http://www.w3.org/1999/xlink">
    <!-- Generator: Sketch 53 (72520) - https://sketchapp.com -->
    <title>icon</title>
    <desc>Created with Sketch.</desc>
    <g id="icon" stroke="none" stroke-width="1" fill="none" fill-rule="evenodd">
        <rect fill="#FFFFFF" x="0" y="0" width="128" height="128"></rect>
        <g id="ios-box-outline" transform="translate(0.000000, 8.000000)" fill="#B92701" fill-rule="nonzero">
            <path d="M76.72,51.2 C80.24,51.2 83.16,54.08 83.16,57.6 C83.16,61.12 80.36,64 76.8,64 L51.2,64 C47.68,64 44.8,61.12 44.8,57.6 C44.8,54.08 47.68,51.2 51.2,51.2 L76.4,51.2 L76.72,51.2 Z M76.8,44.8 L51.2,44.8 C44.16,44.8 38.4,50.56 38.4,57.6 C38.4,64.64 44.16,70.4 51.2,70.4 L76.8,70.4 C83.84,70.4 89.6,64.64 89.6,57.6 C89.6,50.56 83.84,44.8 76.8,44.8 L76.8,44.8 Z" id="Shape"></path>
            <path d="M128,0 L0,0 L0,32 L6.4,32 L6.4,115.2 L121.6,115.2 L121.6,32 L128,32 L128,0 Z M115.2,108.8 L12.8,108.8 L12.8,32 L115.2,32 L115.2,108.8 Z M121.6,25.6 L6.4,25.6 L6.4,6.4 L121.6,6.4 L121.6,25.6 Z" id="Shape"></path>
        </g>
        <g id="arrow-left-c" transform="translate(32.346611, 92.261120) rotate(-91.000000) translate(-32.346611, -92.261120) translate(12.346611, 76.261120)" fill="#B92701" fill-rule="nonzero">
            <path d="M12.4204545,1.06818182 L1.02272727,13 C0.340909091,13.6590909 0,14.5568182 0,15.5454545 C0,16.5340909 0.340909091,17.4204545 1.02272727,18.0909091 L12.4204545,30.0681818 C13.7727273,31.4886364 15.9772727,31.4886364 17.3295455,30.0681818 C18.6818182,28.6477273 18.6818182,26.3522727 17.3295455,24.9318182 L11.8636364,19.2045455 L36.5227273,19.2045455 C38.4431818,19.2045455 40,17.5795455 40,15.5681818 C40,13.5568182 38.4431818,11.9318182 36.5227273,11.9318182 L11.8636364,11.9318182 L17.3409091,6.20454545 C18.6931818,4.78409091 18.6931818,2.48863636 17.3409091,1.06818182 C15.9772727,-0.352272727 13.7840909,-0.352272727 12.4204545,1.06818182 Z" id="Path"></path>
        </g>
        <g id="arrow-left-c" transform="translate(95.914859, 92.268656) rotate(-270.000000) translate(-95.914859, -92.268656) translate(75.914859, 76.700474)" fill="#B92701" fill-rule="nonzero">
            <path d="M12.4204545,1.06818182 L1.02272727,13 C0.340909091,13.6590909 0,14.5568182 0,15.5454545 C0,16.5340909 0.340909091,17.4204545 1.02272727,18.0909091 L12.4204545,30.0681818 C13.7727273,31.4886364 15.9772727,31.4886364 17.3295455,30.0681818 C18.6818182,28.6477273 18.6818182,26.3522727 17.3295455,24.9318182 L11.8636364,19.2045455 L36.5227273,19.2045455 C38.4431818,19.2045455 40,17.5795455 40,15.5681818 C40,13.5568182 38.4431818,11.9318182 36.5227273,11.9318182 L11.8636364,11.9318182 L17.3409091,6.20454545 C18.6931818,4.78409091 18.6931818,2.48863636 17.3409091,1.06818182 C15.9772727,-0.352272727 13.7840909,-0.352272727 12.4204545,1.06818182 Z" id="Path"></path>
        </g>
    </g>
</svg>