<?xml version="1.0" encoding="UTF-8"?>
<svg width="32px" height="32px" viewBox="0 0 32 32" version="1.1" xmlns="http://www.w3.org/2000/svg" xmlns:xlink="http://www.w3.org/1999/xlink">
    <!-- Generator: Sketch 52.6 (67491) - http://www.bohemiancoding.com/sketch -->
    <title>icon</title>
    <desc>Created with Sketch.</desc>
    <g id="icon" stroke="none" stroke-width="1" fill="none" fill-rule="evenodd">
        <g id="hammer" fill="#4A90E2">
            <path d="M19.625141,0 L16.376363,0 C16.1701905,0 16.001504,0.162723214 16.001504,0.361607143 L16.001504,0.699107143 C15.751598,0.940178571 15.3205101,1.28973214 14.8894222,1.28973214 C14.233419,1.28973214 13.96477,0.301339286 13.2587856,0.180803571 C12.5528011,0.0602678571 11.5594248,4.28228881e-16 10.8909262,4.28228881e-16 C10.2224276,4.28228881e-16 7.64214816,0.0421875 4.51832312,1.29575893 C1.39449809,2.54933036 0.0387580212,5.20714286 0.00127212078,6.2015625 C-0.0174708294,6.72589286 0.169958673,7.47321429 0.626037128,6.87053571 C1.08211558,6.26785714 2.8314576,4.32120536 4.23093122,4.1765625 C5.62415719,4.03794643 7.0861073,4.22477679 8.21068431,5.21316964 C9.29152778,6.159375 9.54143378,7.06941964 9.54143378,9.64285714 L9.12908888,9.76339286 C8.86043992,9.84174107 8.69175337,10.1069196 8.69175337,10.3058036 C8.69175337,10.3058036 8.67925807,10.6975446 8.67925807,14.5486607 C8.67925807,20.25 8.00451186,26.6383929 8.00451186,26.6383929 C8.00451186,26.8372768 8.17319841,27 8.37937087,27 L13.6273969,27 C13.8335694,27 14.0022559,26.8372768 14.0022559,26.6383929 C14.0022559,26.6383929 13.3275097,20.25 13.3275097,14.5486607 C13.3275097,10.6975446 13.3150144,10.3058036 13.3150144,10.3058036 C13.3150144,10.1069196 13.1713185,9.83571429 12.8776789,9.76339286 L12.3778669,9.64285714 C12.3778669,7.340625 12.3528763,6.38839286 12.7714689,5.67120536 C13.2088044,4.92388393 14.1646948,4.29107143 14.6270209,4.15848214 C14.9956323,4.05 15.6266449,4.23683036 16.001504,4.55022321 L16.001504,5.42410714 C16.001504,5.62299107 16.1701905,5.78571429 16.376363,5.78571429 L19.625141,5.78571429 C19.8313134,5.78571429 20,5.62299107 20,5.42410714 L20,0.361607143 C20,0.162723214 19.8313134,0 19.625141,0 Z" id="Path"></path>
        </g>
        <g id="ios-fastforward" transform="translate(16.000000, 23.000000)" fill="#F5A623">
            <polygon id="Path" points="8 0 8 4.33125 0 0 0 9 8 4.66875 8 9 16 4.5"></polygon>
        </g>
    </g>
</svg>